<?xml version="1.0" standalone="no"?>
<!DOCTYPE svg PUBLIC "-//W3C//DTD SVG 20010904//EN"
 "http://www.w3.org/TR/2001/REC-SVG-20010904/DTD/svg10.dtd">
<svg version="1.0" xmlns="http://www.w3.org/2000/svg"
 width="1280.000000pt" height="1280.000000pt" viewBox="0 0 1280.000000 1280.000000"
 preserveAspectRatio="xMidYMid meet">

<g transform="translate(0.000000,1280.000000) scale(0.100000,-0.100000)"
fill="#000000" stroke="none">
<path d="M6208 9583 c12 -2 30 -2 40 0 9 3 -1 5 -23 4 -22 0 -30 -2 -17 -4z"/>
<path d="M6400 9586 c0 -2 15 -6 34 -8 19 -2 32 0 30 4 -5 8 -64 12 -64 4z"/>
<path d="M6008 9523 c-10 -2 -18 -9 -18 -14 0 -6 10 -5 23 2 37 20 36 23 -5
12z"/>
<path d="M6600 9520 c8 -5 20 -10 25 -10 6 0 3 5 -5 10 -8 5 -19 10 -25 10 -5
0 -3 -5 5 -10z"/>
<path d="M6640 9506 c0 -3 14 -12 30 -21 17 -9 30 -13 30 -11 0 3 -13 12 -30
21 -16 9 -30 13 -30 11z"/>
<path d="M5944 9484 c-18 -14 -18 -14 6 -3 31 14 36 19 24 19 -6 0 -19 -7 -30
-16z"/>
<path d="M5870 9450 c-8 -5 -10 -10 -5 -10 6 0 17 5 25 10 8 5 11 10 5 10 -5
0 -17 -5 -25 -10z"/>
<path d="M6750 9446 c0 -2 7 -7 16 -10 8 -3 12 -2 9 4 -6 10 -25 14 -25 6z"/>
<path d="M6790 9426 c0 -2 7 -7 16 -10 8 -3 12 -2 9 4 -6 10 -25 14 -25 6z"/>
<path d="M5748 9389 c-32 -16 -58 -32 -58 -34 0 -5 119 52 129 61 13 12 -22
-1 -71 -27z"/>
<path d="M6910 9366 c0 -3 14 -12 30 -21 17 -9 30 -13 30 -11 0 3 -13 12 -30
21 -16 9 -30 13 -30 11z"/>
<path d="M5635 9320 c-22 -16 -47 -29 -55 -30 -17 0 -192 -82 -187 -87 2 -2
29 8 61 22 89 39 92 33 19 -37 -13 -12 -23 -29 -23 -38 0 -10 -8 -28 -18 -41
-17 -22 -33 -55 -30 -62 3 -7 -177 -345 -193 -361 -5 -6 -9 -19 -9 -29 0 -10
-9 -21 -20 -24 -13 -3 -20 -14 -20 -29 0 -13 -4 -24 -10 -24 -5 0 -10 4 -10 9
0 5 -15 13 -32 16 -18 4 -42 14 -53 21 -11 8 -29 14 -42 14 -14 0 -28 11 -39
29 -11 19 -23 27 -34 24 -21 -6 -38 16 -20 27 13 8 -33 50 -56 50 -8 0 -14 4
-14 9 0 14 -81 53 -98 46 -12 -4 -13 -3 -2 9 6 9 17 14 22 13 6 -1 13 4 15 11
4 9 -1 10 -19 4 -12 -5 -36 -12 -53 -16 -23 -5 -18 0 20 20 262 136 290 153
245 139 -14 -4 -26 -12 -28 -16 -2 -5 -8 -9 -14 -9 -17 0 -128 -54 -128 -62 0
-4 -5 -8 -12 -8 -15 0 -122 -53 -126 -62 -2 -5 -9 -8 -15 -8 -17 0 -355 -166
-485 -237 -149 -83 -244 -206 -288 -377 l-24 -90 0 -648 c0 -379 -4 -655 -9
-666 -5 -9 -24 -74 -41 -145 -24 -98 -30 -138 -24 -174 l7 -47 16 43 17 42 24
-75 c22 -70 23 -82 12 -153 -7 -53 -8 -173 -3 -373 l7 -295 33 -77 c40 -95 84
-154 166 -221 61 -51 329 -201 410 -231 22 -8 286 -136 587 -285 302 -149 551
-271 554 -271 9 0 60 -24 289 -135 266 -129 335 -144 554 -115 56 8 99 23 178
61 57 29 102 53 100 55 -2 2 -44 -16 -93 -40 -125 -61 -160 -69 -299 -67 -90
1 -138 7 -192 23 -40 11 -73 24 -73 28 0 4 17 2 37 -5 27 -9 40 -10 49 -1 8 7
8 13 1 17 -5 4 -2 9 9 12 16 4 17 5 2 6 -11 1 -18 9 -18 21 0 11 -5 20 -11 20
-12 0 8 22 34 37 18 9 18 10 0 28 -17 18 -18 18 -21 -3 -5 -34 -22 -15 -22 24
0 31 -2 34 -30 34 -25 0 -30 4 -31 25 -2 42 -3 45 -19 55 -10 7 -11 10 -2 10
6 0 12 7 12 15 0 8 -4 15 -10 15 -5 0 -10 9 -10 20 0 15 7 20 25 20 23 0 24 2
13 23 -7 12 -14 24 -15 25 -1 2 -10 -1 -19 -6 -16 -9 -20 -4 -32 36 -8 26 -14
75 -15 109 -2 60 -3 63 -27 63 -18 0 -21 3 -11 9 11 7 9 11 -9 21 -12 6 -35
13 -51 15 -39 5 -130 50 -121 60 4 5 -1 5 -10 2 -10 -4 -18 -3 -18 2 0 5 -16
16 -35 25 -19 9 -35 21 -35 26 0 6 -8 10 -17 11 -10 0 -13 3 -7 5 6 3 33 -6
60 -20 27 -13 101 -47 164 -76 63 -29 189 -88 280 -132 l165 -79 55 28 c30 15
69 28 86 29 18 1 40 5 50 9 11 4 38 9 62 10 50 3 51 3 54 36 3 20 -1 24 -22
21 -24 -4 -25 -3 -5 12 24 18 51 20 61 5 4 -8 -1 -9 -17 -4 -16 5 -21 4 -14
-3 14 -14 59 -27 51 -14 -3 5 1 13 10 16 10 4 13 2 8 -6 -4 -6 9 2 29 18 20
16 37 35 37 42 0 9 7 11 19 7 11 -3 23 0 27 7 4 6 2 14 -5 16 -9 3 -9 7 0 18
6 8 15 14 20 14 5 0 26 11 47 23 77 49 442 237 459 237 4 0 -5 -9 -20 -19 -16
-10 -28 -22 -27 -27 1 -5 -4 -10 -11 -13 -7 -2 -9 1 -4 9 5 9 4 11 -4 6 -9 -6
-9 -11 1 -23 11 -13 9 -18 -10 -31 -12 -8 -22 -22 -22 -31 0 -9 -7 -29 -15
-45 -8 -15 -15 -34 -15 -41 0 -8 -9 -17 -20 -20 -16 -5 -20 -15 -20 -46 0 -28
-4 -39 -15 -39 -9 0 -15 -10 -15 -26 0 -29 -30 -126 -41 -134 -4 -3 -9 -21
-11 -40 -2 -19 -7 -34 -13 -33 -6 1 -10 -21 -9 -50 0 -82 -18 -159 -41 -169
-14 -6 -12 -7 10 -2 16 3 35 10 41 15 6 5 33 21 60 35 27 14 54 30 59 36 6 6
-12 -1 -39 -16 -27 -14 -51 -24 -53 -22 -5 4 107 237 305 636 97 195 97 195
147 220 357 182 573 299 600 326 18 18 44 59 57 91 l23 58 2 525 c1 289 5 539
8 555 5 32 60 132 174 318 40 65 70 121 67 125 -4 3 -10 1 -15 -4 -18 -19
-169 -241 -195 -286 -15 -27 -29 -48 -31 -48 -2 0 -3 29 -3 65 0 49 4 65 14
65 16 0 17 15 4 45 -8 18 -9 16 -11 -10 -2 -16 -5 125 -9 315 l-5 345 -29 63
c-34 74 -54 92 -164 151 -45 24 -80 47 -77 49 3 3 10 1 16 -5 13 -13 39 -6 39
9 0 5 -4 6 -10 3 -12 -7 -70 34 -69 49 0 6 3 5 6 -1 2 -7 11 -13 18 -13 8 0
18 -7 23 -16 5 -9 12 -12 15 -7 7 11 -95 134 -270 326 -196 215 -303 320 -364
359 -30 20 -96 79 -148 132 -51 53 -96 96 -98 96 -6 0 46 -69 92 -121 22 -26
83 -97 135 -159 195 -232 400 -454 400 -435 0 6 -22 33 -48 60 -46 50 -76 86
-176 209 -27 34 -52 63 -55 66 -26 22 -113 132 -101 128 8 -2 64 -60 124 -129
225 -256 369 -416 393 -435 8 -7 12 -18 11 -25 -2 -8 4 -13 14 -13 13 1 15 -3
8 -22 -7 -17 -6 -24 2 -24 6 0 9 -2 6 -5 -14 -15 -472 201 -1169 551 -234 118
-429 214 -433 214 -3 0 -115 -54 -249 -119 -133 -65 -309 -152 -392 -191 -82
-40 -219 -106 -303 -146 -84 -41 -155 -74 -157 -74 -7 0 16 50 43 94 13 21 63
116 110 210 87 174 266 511 284 534 15 18 7 14 -37 -18z m19 -1030 c179 -41
366 -138 486 -252 75 -71 180 -189 180 -202 0 -7 -11 -18 -25 -24 -13 -6 -79
-47 -145 -92 -66 -44 -127 -80 -134 -80 -8 0 -20 10 -28 23 -27 40 -106 115
-174 163 -85 61 -171 92 -296 106 -82 10 -98 14 -94 27 38 119 107 313 115
330 14 26 11 26 115 1z m-270 1 c6 -10 -153 -26 -176 -19 -15 6 81 25 134 27
20 0 39 -3 42 -8z m-304 -35 c0 -11 -74 -194 -118 -291 -91 -202 -122 -343
-122 -559 0 -46 -3 -86 -7 -89 -3 -4 -16 1 -27 12 -12 10 -82 56 -156 101 -74
45 -150 93 -167 107 l-33 24 0 143 c0 132 2 146 25 192 69 137 266 270 505
340 77 22 100 27 100 20z m2860 -63 c3 -3 6 -535 8 -1184 l3 -1179 -183 2
-183 3 -5 899 -5 899 -51 -84 c-28 -46 -86 -147 -129 -224 -122 -219 -203
-363 -255 -450 -26 -44 -84 -145 -130 -225 -46 -80 -108 -185 -138 -233 l-54
-88 -82 148 c-46 81 -103 182 -128 223 -61 100 -193 331 -201 350 -3 8 -6 -98
-6 -236 -1 -138 -4 -306 -8 -373 -6 -121 -6 -121 -27 -106 -81 57 -240 158
-411 260 -367 218 -750 448 -791 476 l-42 28 -4 198 c-3 109 -3 200 -2 202 3
4 406 -234 734 -432 91 -55 192 -116 225 -135 135 -80 163 -106 220 -214 l31
-57 -4 388 -4 387 33 26 c19 14 47 38 62 53 24 24 30 26 41 14 13 -13 200
-328 282 -473 21 -38 44 -71 49 -72 6 -2 44 56 87 129 223 386 328 568 358
617 18 30 38 64 44 75 6 11 31 54 55 95 25 41 67 113 94 160 28 47 61 100 74
118 l25 33 206 -7 c114 -4 209 -9 212 -11z m-3589 -834 l-10 -24 0 26 c-1 14
2 29 6 33 12 12 14 -9 4 -35z m6 -121 c-2 -18 -4 -6 -4 27 0 33 2 48 4 33 2
-15 2 -42 0 -60z m0 -310 c-1 -51 -3 -10 -3 92 0 102 2 143 3 93 2 -51 2 -135
0 -185z m423 -490 c0 -105 34 -243 84 -344 80 -160 207 -263 391 -316 66 -18
105 -22 220 -23 245 0 354 46 544 230 l97 94 35 -22 c19 -13 80 -50 137 -82
56 -32 102 -63 102 -68 0 -5 -20 -35 -45 -67 -192 -249 -428 -399 -709 -449
-88 -16 -285 -13 -374 5 -189 38 -430 148 -589 268 -118 89 -157 130 -192 206
-24 52 -26 66 -29 240 l-3 185 145 89 c80 48 151 95 157 102 22 26 29 14 29
-48z m-433 -435 c-2 -16 -4 -5 -4 22 0 28 2 40 4 28 2 -13 2 -35 0 -50z m10
-155 c-3 -7 -5 -2 -5 12 0 14 2 19 5 13 2 -7 2 -19 0 -25z m677 -530 c27 -38
18 -38 -19 -1 -19 19 -35 37 -35 39 0 11 40 -18 54 -38z m86 -112 c0 -5 -13 8
-30 29 -16 21 -30 40 -30 43 0 10 59 -62 60 -72z m84 -86 c11 -14 45 -53 74
-88 30 -34 51 -62 47 -62 -9 0 -17 9 -113 121 -45 54 -82 101 -82 105 1 8 12
-4 74 -76z m1596 -45 c0 -6 -76 -45 -87 -45 -4 1 12 12 37 25 50 27 50 27 50
20z m-860 -80 c11 -13 10 -14 -4 -9 -9 3 -16 10 -16 15 0 13 6 11 20 -6z
m-536 -112 c31 -43 41 -60 21 -38 -60 67 -97 115 -88 115 5 0 35 -35 67 -77z
m1156 57 c0 -5 -4 -10 -9 -10 -5 0 -18 -3 -28 -6 -16 -6 -16 -5 2 9 23 19 35
21 35 7z m-65 -30 c-3 -5 -11 -10 -16 -10 -6 0 -7 5 -4 10 3 6 11 10 16 10 6
0 7 -4 4 -10z m-498 -177 c-3 -10 -5 -4 -5 12 0 17 2 24 5 18 2 -7 2 -21 0
-30z m70 -109 c-3 -3 -12 -4 -19 -1 -8 3 -5 6 6 6 11 1 17 -2 13 -5z m83 -234
c-12 -8 -12 -10 -1 -10 8 0 12 -2 10 -5 -3 -2 -16 -1 -29 2 -22 6 -23 7 -4 14
27 11 42 10 24 -1z"/>
<path d="M7035 9285 c17 -14 34 -25 39 -25 6 0 -5 11 -24 25 -43 32 -54 32
-15 0z"/>
<path d="M7200 9200 c8 -5 20 -10 25 -10 6 0 3 5 -5 10 -8 5 -19 10 -25 10 -5
0 -3 -5 5 -10z"/>
<path d="M5210 9122 c-67 -33 -64 -31 -59 -36 2 -2 33 11 69 30 36 18 61 33
55 33 -5 1 -35 -12 -65 -27z"/>
<path d="M7407 9099 c7 -7 15 -10 18 -7 3 3 -2 9 -12 12 -14 6 -15 5 -6 -5z"/>
<path d="M5075 9054 c-27 -13 -54 -25 -60 -27 -5 -3 -7 -7 -4 -10 4 -6 114 45
128 59 11 10 -18 0 -64 -22z"/>
<path d="M7597 8999 c7 -7 15 -10 18 -7 3 3 -2 9 -12 12 -14 6 -15 5 -6 -5z"/>
<path d="M7867 8859 c7 -7 15 -10 18 -7 3 3 -2 9 -12 12 -14 6 -15 5 -6 -5z"/>
<path d="M8000 8790 c8 -5 20 -10 25 -10 6 0 3 5 -5 10 -8 5 -19 10 -25 10 -5
0 -3 -5 5 -10z"/>
<path d="M8204 8685 c11 -8 25 -15 30 -15 6 0 2 7 -8 15 -11 8 -25 15 -30 15
-6 0 -2 -7 8 -15z"/>
<path d="M8270 8655 c0 -6 136 -75 147 -75 8 0 -135 80 -143 80 -2 0 -4 -2 -4
-5z"/>
<path d="M8430 8576 c0 -3 9 -10 20 -16 11 -6 20 -8 20 -6 0 3 -9 10 -20 16
-11 6 -20 8 -20 6z"/>
<path d="M8480 8548 c3 -2 37 -33 75 -68 39 -36 59 -52 45 -35 -34 40 -81 84
-105 97 -11 6 -18 9 -15 6z"/>
<path d="M8635 8386 c10 -14 19 -26 22 -26 7 0 -17 39 -28 46 -6 3 -3 -5 6
-20z"/>
<path d="M8680 8309 c0 -4 7 -22 15 -40 8 -19 14 -27 14 -19 0 14 -28 72 -29
59z"/>
<path d="M8711 8214 c0 -11 3 -14 6 -6 3 7 2 16 -1 19 -3 4 -6 -2 -5 -13z"/>
<path d="M8728 8052 c4 -150 9 -168 10 -42 1 63 -2 120 -6 127 -4 6 -6 -32 -4
-85z"/>
<path d="M8743 7845 c0 -22 2 -30 4 -17 2 12 2 30 0 40 -3 9 -5 -1 -4 -23z"/>
<path d="M8744 7630 c0 -52 1 -74 3 -47 2 26 2 68 0 95 -2 26 -3 4 -3 -48z"/>
<path d="M8261 7374 c0 -11 3 -14 6 -6 3 7 2 16 -1 19 -3 4 -6 -2 -5 -13z"/>
<path d="M8260 7254 c0 -8 5 -12 10 -9 6 3 10 10 10 16 0 5 -4 9 -10 9 -5 0
-10 -7 -10 -16z"/>
<path d="M8743 5890 c0 -41 2 -58 4 -37 2 20 2 54 0 75 -2 20 -4 3 -4 -38z"/>
<path d="M8732 5720 c0 -14 2 -19 5 -12 2 6 2 18 0 25 -3 6 -5 1 -5 -13z"/>
<path d="M8696 5603 c-6 -14 -5 -15 5 -6 7 7 10 15 7 18 -3 3 -9 -2 -12 -12z"/>
<path d="M6840 5080 c0 -5 9 -10 21 -10 11 0 17 5 14 10 -3 6 -13 10 -21 10
-8 0 -14 -4 -14 -10z"/>
<path d="M6850 5050 c0 -6 7 -10 15 -10 8 0 15 2 15 4 0 2 -7 6 -15 10 -8 3
-15 1 -15 -4z"/>
<path d="M6742 4959 c-25 -10 -25 -32 0 -37 10 -2 17 6 20 23 3 14 5 25 4 24
0 0 -12 -4 -24 -10z"/>
<path d="M6010 4940 c0 -5 5 -10 10 -10 6 0 10 5 10 10 0 6 -4 10 -10 10 -5 0
-10 -4 -10 -10z"/>
<path d="M6040 4913 c0 -26 1 -26 15 -7 19 25 19 34 0 34 -10 0 -15 -10 -15
-27z"/>
<path d="M6805 4920 c-8 -13 20 -24 41 -16 20 8 9 26 -16 26 -10 0 -22 -5 -25
-10z"/>
<path d="M6526 4895 c-11 -8 -15 -15 -9 -15 19 0 43 12 43 21 0 13 -12 11 -34
-6z"/>
<path d="M6080 4889 c0 -5 5 -7 10 -4 6 3 10 8 10 11 0 2 -4 4 -10 4 -5 0 -10
-5 -10 -11z"/>
<path d="M6546 4872 c-2 -4 -1 -14 5 -22 7 -12 9 -10 9 8 0 23 -5 28 -14 14z"/>
<path d="M6720 4785 c0 -11 12 -15 44 -15 49 0 76 7 76 21 0 5 -27 9 -60 9
-47 0 -60 -3 -60 -15z"/>
<path d="M6590 4680 c0 -22 5 -40 10 -40 6 0 10 18 10 40 0 22 -4 40 -10 40
-5 0 -10 -18 -10 -40z"/>
<path d="M6640 4705 c0 -17 2 -18 24 -9 23 9 20 24 -4 24 -11 0 -20 -7 -20
-15z"/>
<path d="M6980 4560 c-18 -12 -2 -12 25 0 13 6 15 9 5 9 -8 0 -22 -4 -30 -9z"/>
<path d="M6894 4514 c-18 -14 -18 -14 6 -3 31 14 36 19 24 19 -6 0 -19 -7 -30
-16z"/>
<path d="M6840 4490 c-8 -5 -10 -10 -5 -10 6 0 17 5 25 10 8 5 11 10 5 10 -5
0 -17 -5 -25 -10z"/>
<path d="M6790 4460 c-9 -6 -10 -10 -3 -10 6 0 15 5 18 10 8 12 4 12 -15 0z"/>
<path d="M6218 4373 c7 -3 16 -2 19 1 4 3 -2 6 -13 5 -11 0 -14 -3 -6 -6z"/>
<path d="M6178 4353 c7 -3 16 -2 19 1 4 3 -2 6 -13 5 -11 0 -14 -3 -6 -6z"/>
<path d="M6218 4343 c7 -3 16 -2 19 1 4 3 -2 6 -13 5 -11 0 -14 -3 -6 -6z"/>
<path d="M5723 3724 c-3 -8 -1 -34 5 -57 l10 -42 1 53 1 54 69 -4 c38 -2 67 0
64 5 -2 4 -36 7 -74 7 -54 0 -71 -4 -76 -16z"/>
<path d="M3788 3713 c12 -2 30 -2 40 0 9 3 -1 5 -23 4 -22 0 -30 -2 -17 -4z"/>
<path d="M3863 3713 c9 -2 25 -2 35 0 9 3 1 5 -18 5 -19 0 -27 -2 -17 -5z"/>
<path d="M3728 3703 c6 -2 18 -2 25 0 6 3 1 5 -13 5 -14 0 -19 -2 -12 -5z"/>
<path d="M3649 3680 c-20 -11 -48 -33 -63 -50 -22 -27 -26 -41 -26 -100 0 -38
5 -72 10 -75 6 -4 8 -11 4 -16 -3 -5 13 -28 37 -50 33 -31 62 -45 139 -69 108
-34 157 -65 177 -111 11 -27 11 -37 -3 -70 -10 -20 -27 -42 -38 -48 -20 -11
-20 -11 2 -5 12 3 22 1 22 -4 0 -5 -10 -12 -22 -16 -33 -8 -40 -7 -33 4 3 6
-1 10 -10 10 -10 0 -13 -5 -9 -12 5 -8 2 -9 -10 -5 -10 4 -15 3 -11 -3 14 -22
-164 5 -188 29 -5 5 12 3 38 -5 87 -26 82 -14 -7 16 -84 28 -126 31 -110 6 4
-6 12 -27 17 -46 14 -49 97 -91 192 -96 l68 -3 -53 10 -54 11 27 14 c15 8 44
14 64 15 30 1 32 2 12 8 -21 5 -16 8 28 20 29 7 67 26 84 40 18 15 40 31 50
34 11 4 21 16 24 27 3 11 9 17 14 14 17 -10 14 84 -2 101 -7 7 -8 3 -4 -10 5
-16 5 -17 -3 -5 -6 8 -8 18 -5 23 6 10 -26 47 -41 47 -6 0 -17 9 -24 21 -14
23 -116 72 -172 84 -81 17 -137 99 -111 162 13 33 64 65 88 56 9 -4 14 -2 10
3 -8 14 143 -8 168 -24 19 -12 19 -13 -5 -7 -20 4 -18 1 10 -14 40 -23 64 -27
37 -7 -16 12 -16 14 -2 20 15 5 15 7 1 22 -17 16 -40 20 -135 23 -67 1 -64 7
7 14 60 6 74 13 52 27 -24 15 -90 11 -157 -9 -62 -19 -85 -15 -40 7 13 6 16
11 7 11 -8 0 -31 -9 -51 -19z m286 -580 c-3 -5 -11 -10 -16 -10 -6 0 -7 5 -4
10 3 6 11 10 16 10 6 0 7 -4 4 -10z"/>
<path d="M6261 3673 c2 -25 2 -26 6 -5 4 23 8 23 88 20 46 -2 81 0 78 5 -2 4
-42 7 -89 7 l-84 0 1 -27z"/>
<path d="M6805 3689 c-4 -6 -5 -12 -2 -15 2 -3 7 2 10 11 7 17 1 20 -8 4z"/>
<path d="M6963 3665 c0 -22 2 -30 4 -17 2 12 2 30 0 40 -3 9 -5 -1 -4 -23z"/>
<path d="M8306 3682 c6 -4 14 -14 17 -22 4 -10 6 -8 6 8 1 15 -5 22 -16 22
-11 0 -14 -3 -7 -8z"/>
<path d="M4222 3649 c-23 -23 -32 -40 -32 -65 0 -23 -6 -37 -20 -44 -24 -13
-28 -81 -6 -99 17 -14 27 -99 30 -244 2 -59 6 -110 9 -114 4 -3 7 -17 7 -30 0
-12 4 -23 9 -23 5 0 12 -11 15 -24 3 -13 16 -26 28 -30 33 -8 169 -6 193 3 12
5 -11 7 -55 5 -41 -2 -69 -1 -62 2 16 8 15 20 -4 43 -10 11 -24 17 -32 13 -10
-3 -13 -1 -8 7 4 6 2 18 -4 26 -8 10 -13 76 -16 197 -2 101 -7 199 -11 218 -3
19 -5 59 -4 89 3 50 2 53 -17 49 -28 -8 -19 13 16 35 17 10 21 17 11 17 -8 0
-30 -14 -47 -31z"/>
<path d="M8248 3664 c-39 -21 -35 -28 5 -8 37 19 44 24 31 24 -5 -1 -21 -8
-36 -16z"/>
<path d="M4010 3640 c0 -16 5 -30 10 -30 6 0 10 14 10 30 0 17 -4 30 -10 30
-5 0 -10 -13 -10 -30z"/>
<path d="M6451 3654 c0 -11 3 -14 6 -6 3 7 2 16 -1 19 -3 4 -6 -2 -5 -13z"/>
<path d="M4302 3640 c0 -14 2 -19 5 -12 2 6 2 18 0 25 -3 6 -5 1 -5 -13z"/>
<path d="M8201 3624 c0 -11 3 -14 6 -6 3 7 2 16 -1 19 -3 4 -6 -2 -5 -13z"/>
<path d="M8312 3588 c-2 -40 1 -48 16 -48 11 0 13 3 5 8 -6 4 -13 25 -16 47
-4 40 -4 40 -5 -7z"/>
<path d="M3997 3580 c-3 -11 -1 -20 4 -20 5 0 9 9 9 20 0 11 -2 20 -4 20 -2 0
-6 -9 -9 -20z"/>
<path d="M3697 3577 c-11 -29 -9 -43 4 -30 6 6 9 19 7 29 -3 18 -4 18 -11 1z"/>
<path d="M6750 3579 c0 -5 5 -7 10 -4 6 3 10 8 10 11 0 2 -4 4 -10 4 -5 0 -10
-5 -10 -11z"/>
<path d="M7318 3563 c6 -2 18 -2 25 0 6 3 1 5 -13 5 -14 0 -19 -2 -12 -5z"/>
<path d="M7803 3563 c9 -2 23 -2 30 0 6 3 -1 5 -18 5 -16 0 -22 -2 -12 -5z"/>
<path d="M7913 3563 c9 -2 23 -2 30 0 6 3 -1 5 -18 5 -16 0 -22 -2 -12 -5z"/>
<path d="M8763 3563 c15 -2 39 -2 55 0 15 2 2 4 -28 4 -30 0 -43 -2 -27 -4z"/>
<path d="M9378 3563 c6 -2 18 -2 25 0 6 3 1 5 -13 5 -14 0 -19 -2 -12 -5z"/>
<path d="M9439 3562 c10 -7 12 -24 8 -63 -5 -46 -4 -49 4 -20 13 43 8 83 -11
88 -12 4 -13 3 -1 -5z"/>
<path d="M4760 3553 c-84 -28 -134 -66 -174 -130 -24 -40 -26 -51 -26 -157 0
-63 4 -117 9 -121 5 -3 12 -19 16 -35 4 -17 10 -30 15 -30 4 0 11 -10 14 -22
8 -31 104 -87 163 -96 27 -4 66 -4 88 -1 34 5 30 7 -30 9 -66 3 -68 3 -25 10
l45 6 -35 5 -35 6 33 1 c17 1 32 6 32 12 0 5 10 14 21 21 17 9 20 8 13 -3 -4
-7 8 2 26 20 19 17 40 32 47 32 7 0 13 5 13 11 0 7 10 20 21 30 14 12 20 26
16 39 -3 13 -1 18 5 13 8 -4 9 19 6 73 -4 59 -13 92 -32 129 -36 68 -41 70
-43 24 0 -21 3 -39 8 -39 5 0 9 -11 9 -24 0 -14 4 -27 8 -30 5 -3 5 -37 1 -75
-7 -62 -12 -76 -43 -108 -25 -27 -32 -40 -23 -46 8 -6 6 -7 -5 -3 -10 3 -24
-1 -32 -9 -20 -20 -83 -18 -132 4 -63 29 -97 95 -96 188 1 85 18 128 72 179
32 31 90 69 90 59 0 -1 17 1 37 5 24 6 42 5 50 -2 9 -7 13 -7 13 0 0 20 -42
35 -98 34 -68 -1 -58 11 16 19 l57 6 -50 1 c-27 0 -57 -2 -65 -5z"/>
<path d="M5458 3553 c7 -3 16 -2 19 1 4 3 -2 6 -13 5 -11 0 -14 -3 -6 -6z"/>
<path d="M8176 3544 c-5 -14 -4 -15 9 -4 17 14 19 20 6 20 -5 0 -12 -7 -15
-16z"/>
<path d="M9120 3549 c0 -5 5 -7 10 -4 6 3 10 8 10 11 0 2 -4 4 -10 4 -5 0 -10
-5 -10 -11z"/>
<path d="M9173 3553 c9 -2 23 -2 30 0 6 3 -1 5 -18 5 -16 0 -22 -2 -12 -5z"/>
<path d="M9335 3550 c-3 -6 1 -7 9 -4 18 7 21 14 7 14 -6 0 -13 -4 -16 -10z"/>
<path d="M4328 3543 c12 -2 30 -2 40 0 9 3 -1 5 -23 4 -22 0 -30 -2 -17 -4z"/>
<path d="M4910 3540 c8 -5 20 -10 25 -10 6 0 3 5 -5 10 -8 5 -19 10 -25 10 -5
0 -3 -5 5 -10z"/>
<path d="M5528 3543 c7 -3 16 -2 19 1 4 3 -2 6 -13 5 -11 0 -14 -3 -6 -6z"/>
<path d="M7205 3540 c-3 -6 1 -7 9 -4 18 7 21 14 7 14 -6 0 -13 -4 -16 -10z"/>
<path d="M9251 3516 l-1 -39 21 19 c17 16 18 20 6 22 -9 2 -18 11 -20 20 -3 9
-5 -1 -6 -22z"/>
<path d="M7700 3530 c-9 -6 -10 -10 -3 -10 6 0 15 5 18 10 8 12 4 12 -15 0z"/>
<path d="M8443 3500 c0 -25 2 -35 4 -22 2 12 2 32 0 45 -2 12 -4 2 -4 -23z"/>
<path d="M5318 3519 c-28 -16 -88 -75 -88 -87 0 -6 -4 -12 -9 -14 -5 -1 -12
-16 -16 -33 -5 -27 -4 -26 16 10 26 49 64 91 104 116 30 19 24 27 -7 8z"/>
<path d="M7487 3519 c7 -7 15 -10 18 -7 3 3 -2 9 -12 12 -14 6 -15 5 -6 -5z"/>
<path d="M4463 3475 c0 -27 2 -38 4 -22 2 15 2 37 0 50 -2 12 -4 0 -4 -28z"/>
<path d="M4977 3509 c7 -7 15 -10 18 -7 3 3 -2 9 -12 12 -14 6 -15 5 -6 -5z"/>
<path d="M4313 3495 c4 -8 2 -17 -3 -20 -6 -4 -10 -11 -10 -17 0 -7 4 -7 13 0
6 6 29 13 50 17 55 11 49 35 -9 35 -36 0 -45 -3 -41 -15z"/>
<path d="M4920 3496 c0 -2 7 -7 16 -10 8 -3 12 -2 9 4 -6 10 -25 14 -25 6z"/>
<path d="M5863 3440 c0 -30 2 -43 4 -27 2 15 2 39 0 55 -2 15 -4 2 -4 -28z"/>
<path d="M6812 3465 c-10 -21 -9 -25 3 -25 9 0 15 10 15 25 0 14 -2 25 -3 25
-2 0 -9 -11 -15 -25z"/>
<path d="M6390 3450 c0 -23 5 -30 19 -30 18 0 19 3 10 30 -6 17 -15 30 -20 30
-5 0 -9 -13 -9 -30z"/>
<path d="M3730 3466 c0 -3 9 -10 20 -16 11 -6 20 -8 20 -6 0 3 -9 10 -20 16
-11 6 -20 8 -20 6z"/>
<path d="M5611 3444 c0 -11 3 -14 6 -6 3 7 2 16 -1 19 -3 4 -6 -2 -5 -13z"/>
<path d="M4301 3403 c1 -28 3 -31 6 -13 3 14 10 31 15 38 8 9 6 12 -6 12 -12
0 -16 -9 -15 -37z"/>
<path d="M4904 3414 c30 -26 40 -27 31 -1 -4 8 -18 17 -33 20 l-27 5 29 -24z"/>
<path d="M5550 3430 c8 -5 20 -10 25 -10 6 0 3 5 -5 10 -8 5 -19 10 -25 10 -5
0 -3 -5 5 -10z"/>
<path d="M8312 3420 c0 -14 2 -19 5 -12 2 6 2 18 0 25 -3 6 -5 1 -5 -13z"/>
<path d="M4398 3423 c12 -2 30 -2 40 0 9 3 -1 5 -23 4 -22 0 -30 -2 -17 -4z"/>
<path d="M4730 3405 c-13 -14 -20 -25 -17 -25 10 0 49 41 45 46 -3 2 -15 -7
-28 -21z"/>
<path d="M5072 3400 c7 -10 14 -18 15 -16 6 6 -9 36 -18 36 -5 0 -4 -9 3 -20z"/>
<path d="M7422 3365 c0 -16 2 -22 5 -12 2 9 2 23 0 30 -3 6 -5 -1 -5 -18z"/>
<path d="M9012 3370 c0 -14 2 -19 5 -12 2 6 2 18 0 25 -3 6 -5 1 -5 -13z"/>
<path d="M3985 3345 c17 -13 34 -24 38 -25 5 0 -5 11 -21 25 -17 14 -34 25
-38 25 -5 0 5 -11 21 -25z"/>
<path d="M5097 3308 c7 -78 11 -82 12 -10 1 34 -3 62 -8 62 -4 0 -6 -24 -4
-52z"/>
<path d="M4687 3333 c-10 -9 -9 -153 1 -153 4 0 7 36 8 80 0 44 0 80 -1 80 -1
0 -5 -3 -8 -7z"/>
<path d="M6964 3245 c0 -49 1 -71 3 -48 2 23 2 64 0 90 -2 26 -3 8 -3 -42z"/>
<path d="M5323 3255 c0 -33 2 -45 4 -27 2 18 2 45 0 60 -2 15 -4 0 -4 -33z"/>
<path d="M4045 3280 c3 -5 8 -10 11 -10 2 0 4 5 4 10 0 6 -5 10 -11 10 -5 0
-7 -4 -4 -10z"/>
<path d="M9011 3264 c0 -11 3 -14 6 -6 3 7 2 16 -1 19 -3 4 -6 -2 -5 -13z"/>
<path d="M4060 3251 c0 -6 4 -13 10 -16 6 -3 7 1 4 9 -7 18 -14 21 -14 7z"/>
<path d="M9254 3125 c0 -77 2 -107 3 -67 2 40 2 103 0 140 -2 37 -3 4 -3 -73z"/>
<path d="M8948 3243 c12 -2 30 -2 40 0 9 3 -1 5 -23 4 -22 0 -30 -2 -17 -4z"/>
<path d="M7422 3195 c0 -16 2 -22 5 -12 2 9 2 23 0 30 -3 6 -5 -1 -5 -18z"/>
<path d="M5207 3203 c-12 -11 -8 -35 4 -27 8 4 9 0 4 -15 -3 -11 -2 -21 3 -21
16 0 20 35 7 53 -7 9 -15 14 -18 10z"/>
<path d="M8312 3175 c0 -16 2 -22 5 -12 2 9 2 23 0 30 -3 6 -5 -1 -5 -18z"/>
<path d="M8072 3150 c0 -19 2 -27 5 -17 2 9 2 25 0 35 -3 9 -5 1 -5 -18z"/>
<path d="M7932 3140 c0 -14 2 -19 5 -12 2 6 2 18 0 25 -3 6 -5 1 -5 -13z"/>
<path d="M4060 3124 c0 -8 5 -12 10 -9 6 3 10 10 10 16 0 5 -4 9 -10 9 -5 0
-10 -7 -10 -16z"/>
<path d="M5365 3120 c10 -11 20 -20 23 -20 3 0 -3 9 -13 20 -10 11 -20 20 -23
20 -3 0 3 -9 13 -20z"/>
<path d="M5235 3119 c-4 -6 -5 -12 -2 -15 2 -3 7 2 10 11 7 17 1 20 -8 4z"/>
<path d="M7070 3100 c0 -11 4 -20 9 -20 5 0 7 9 4 20 -3 11 -7 20 -9 20 -2 0
-4 -9 -4 -20z"/>
<path d="M8962 3100 c0 -14 2 -19 5 -12 2 6 2 18 0 25 -3 6 -5 1 -5 -13z"/>
<path d="M4320 3101 c0 -10 29 -36 34 -30 1 2 -6 12 -16 22 -10 9 -18 13 -18
8z"/>
<path d="M4750 3091 c14 -11 30 -21 35 -21 11 0 -7 14 -40 31 -13 7 -12 3 5
-10z"/>
<path d="M5065 3100 c-3 -5 -1 -10 4 -10 6 0 11 5 11 10 0 6 -2 10 -4 10 -3 0
-8 -4 -11 -10z"/>
<path d="M6822 3048 l-2 -68 38 2 c36 1 36 1 5 5 -32 4 -32 5 -36 66 l-3 62
-2 -67z"/>
<path d="M7642 3080 c0 -19 2 -27 5 -17 2 9 2 25 0 35 -3 9 -5 1 -5 -18z"/>
<path d="M4045 3090 c-3 -5 -1 -10 4 -10 6 0 11 5 11 10 0 6 -2 10 -4 10 -3 0
-8 -4 -11 -10z"/>
<path d="M4477 3083 c-2 -5 -1 -19 4 -33 7 -23 7 -23 8 8 1 31 -3 40 -12 25z"/>
<path d="M5622 3060 c0 -19 2 -27 5 -17 2 9 2 25 0 35 -3 9 -5 1 -5 -18z"/>
<path d="M6580 3078 c0 -5 9 -8 19 -8 11 0 22 3 24 8 3 4 -6 7 -19 7 -13 0
-24 -3 -24 -7z"/>
<path d="M8180 3081 c0 -6 4 -13 10 -16 6 -3 7 1 4 9 -7 18 -14 21 -14 7z"/>
<path d="M6403 3030 c0 -30 2 -43 4 -27 2 15 2 39 0 55 -2 15 -4 2 -4 -28z"/>
<path d="M5260 3060 c0 -13 60 -57 101 -74 18 -7 54 -16 79 -20 52 -7 46 -3
-32 18 -31 9 -77 32 -102 51 -25 19 -46 31 -46 25z"/>
<path d="M7395 3030 c-3 -5 3 -10 14 -10 12 0 21 5 21 10 0 6 -6 10 -14 10 -8
0 -18 -4 -21 -10z"/>
<path d="M3964 3014 c-18 -14 -18 -15 4 -4 12 6 22 13 22 15 0 8 -5 6 -26 -11z"/>
<path d="M4486 3003 c-6 -14 -5 -15 5 -6 7 7 10 15 7 18 -3 3 -9 -2 -12 -12z"/>
<path d="M4985 3010 c-3 -5 -1 -10 4 -10 6 0 11 5 11 10 0 6 -2 10 -4 10 -3 0
-8 -4 -11 -10z"/>
<path d="M7526 3005 c-3 -8 -1 -15 4 -15 6 0 10 7 10 15 0 8 -2 15 -4 15 -2 0
-6 -7 -10 -15z"/>
<path d="M6049 2998 c10 -14 26 -18 70 -16 l56 2 -55 3 c-30 3 -61 10 -70 16
-13 11 -13 10 -1 -5z"/>
<path d="M7160 2991 c14 -11 36 -20 50 -20 l25 1 -26 7 c-14 5 -36 14 -50 20
l-24 12 25 -20z"/>
<path d="M3778 2993 c7 -3 16 -2 19 1 4 3 -2 6 -13 5 -11 0 -14 -3 -6 -6z"/>
<path d="M5750 2991 c13 -10 119 -16 109 -7 -2 2 -31 7 -64 10 -42 5 -56 4
-45 -3z"/>
<path d="M5875 2990 c-3 -5 -1 -10 4 -10 6 0 11 5 11 10 0 6 -2 10 -4 10 -3 0
-8 -4 -11 -10z"/>
<path d="M7315 2985 c-16 -8 -23 -14 -14 -15 8 0 24 7 35 15 23 18 18 18 -21
0z"/>
<path d="M7478 2993 c6 -2 18 -2 25 0 6 3 1 5 -13 5 -14 0 -19 -2 -12 -5z"/>
<path d="M8264 2986 c11 -9 31 -16 45 -15 24 1 24 2 -5 8 -17 4 -37 11 -45 15
-8 4 -5 0 5 -8z"/>
<path d="M8440 2990 c-9 -6 -10 -10 -3 -10 6 0 15 5 18 10 8 12 4 12 -15 0z"/>
<path d="M4920 2980 c-8 -5 -10 -10 -5 -10 6 0 17 5 25 10 8 5 11 10 5 10 -5
0 -17 -5 -25 -10z"/>
<path d="M6260 2986 c0 -2 7 -6 15 -10 8 -3 15 -1 15 4 0 6 -7 10 -15 10 -8 0
-15 -2 -15 -4z"/>
<path d="M6300 2982 c0 -4 18 -6 40 -4 22 2 40 6 40 8 0 2 -18 4 -40 4 -22 0
-40 -3 -40 -8z"/>
<path d="M7720 2980 c8 -5 24 -10 34 -10 26 0 18 6 -19 14 -22 5 -26 4 -15 -4z"/>
<path d="M8690 2980 c8 -5 24 -10 34 -10 26 0 18 6 -19 14 -22 5 -26 4 -15 -4z"/>
<path d="M9148 2983 c17 -2 47 -2 65 0 17 2 3 4 -33 4 -36 0 -50 -2 -32 -4z"/>
<path d="M3858 2973 c7 -3 16 -2 19 1 4 3 -2 6 -13 5 -11 0 -14 -3 -6 -6z"/>
<path d="M5508 2973 c6 -2 18 -2 25 0 6 3 1 5 -13 5 -14 0 -19 -2 -12 -5z"/>
<path d="M7883 2973 c9 -2 23 -2 30 0 6 3 -1 5 -18 5 -16 0 -22 -2 -12 -5z"/>
<path d="M8388 2973 c7 -3 16 -2 19 1 4 3 -2 6 -13 5 -11 0 -14 -3 -6 -6z"/>
<path d="M8868 2973 c7 -3 16 -2 19 1 4 3 -2 6 -13 5 -11 0 -14 -3 -6 -6z"/>
</g>
</svg>
